<svg width="768" height="53" viewBox="0 0 768 53" fill="none" xmlns="http://www.w3.org/2000/svg">
<g clip-path="url(#clip0_73_2)">
<path fill-rule="evenodd" clip-rule="evenodd" d="M59.3314 2.24339L59.3311 2.24339L59.3277 2.24344H46.9183V48.177H31.5213L16.9263 24.3241L31.5148 5.61948e-05L42.974 5.61948e-05L28.6305 24.3143L35.0771 35.0978L37.4 38.8816L35.5321 40.0709L33.2022 36.2757L26.056 24.322L39.0807 2.24344H32.7506L19.5147 24.3123L32.7442 45.9336H44.7154V1.12175C44.7154 0.502255 45.2085 5.61948e-05 45.8168 5.61948e-05L59.3204 5.61948e-05L59.3234 1.59462e-05C59.3316 -1.29365e-05 59.3421 -8.25643e-06 59.3548 7.779e-05C59.3801 0.000249816 59.4143 0.000747575 59.4568 0.0019565C59.5418 0.00437316 59.6601 0.00963863 59.807 0.0208639C60.1003 0.0432833 60.5102 0.0896623 60.9981 0.185501C61.9698 0.376409 63.2757 0.768448 64.5882 1.57913C67.2872 3.24618 69.8027 6.55484 69.7727 12.8402C69.7579 15.9506 69.1352 18.3108 68.146 20.0988C67.1539 21.892 65.8285 23.0457 64.511 23.7937C64.3915 23.8616 64.2721 23.9261 64.1531 23.9874C65.1971 24.2375 66.3371 24.583 67.4837 25.0676C69.538 25.9358 71.6572 27.2694 73.2733 29.3452C74.9018 31.4369 75.9653 34.2138 75.9992 37.8579C76.0331 41.5062 75.0036 44.3324 73.395 46.4925C71.7984 48.6366 69.6781 50.063 67.6097 51.0134C65.541 51.9639 63.4827 52.4576 61.9517 52.715C61.1835 52.8442 60.5409 52.9151 60.0868 52.9538C59.8596 52.9732 59.6791 52.9846 59.553 52.9911C59.49 52.9944 59.4405 52.9965 59.4056 52.9978C59.3939 52.9982 59.3838 52.9986 59.3754 52.9988L59.3643 52.9992L59.352 52.9995L59.348 52.9996L59.3465 52.9997C59.3459 52.9997 59.3454 52.9997 59.3204 51.8783L59.3454 52.9997L59.3329 53H12.5577V2.24344H2.2029V10.1513H5.63786V53H1.67902V50.7566H3.43496V12.3947H0L0 5.61948e-05L14.7606 5.61948e-05V50.7566H59.3049C59.3099 50.7565 59.3168 50.7562 59.3253 50.7559C59.3498 50.755 59.3885 50.7534 59.4405 50.7507C59.5444 50.7453 59.7012 50.7355 59.9031 50.7183C60.3073 50.6838 60.8907 50.6197 61.5928 50.5016C63.0024 50.2646 64.8623 49.8146 66.7037 48.9685C68.5455 48.1222 70.3275 46.8991 71.6398 45.137C72.94 43.3909 73.8259 41.0542 73.7964 37.8792C73.7668 34.7 72.8514 32.4141 71.5472 30.7389C70.2306 29.0479 68.4634 27.9106 66.6393 27.1396C64.815 26.3686 62.9771 25.9824 61.5741 25.7695C60.9378 25.6729 60.3991 25.613 59.9853 25.5669C59.9437 25.5623 59.9033 25.5578 59.8643 25.5534C59.6611 25.5307 59.4639 25.5081 59.3163 25.4836C59.2504 25.4726 59.1392 25.4527 59.0275 25.4161C58.9794 25.4004 58.8565 25.3583 58.7244 25.2695C58.6352 25.2094 58.219 24.9114 58.219 24.3182C58.219 23.8369 58.4927 23.5326 58.6539 23.3996C58.8069 23.2734 58.9614 23.2093 59.0382 23.18C59.2013 23.1177 59.3825 23.0794 59.5099 23.0542C59.6264 23.0311 59.7632 23.0071 59.9014 22.9829C59.9312 22.9777 59.961 22.9725 59.9907 22.9672C60.1651 22.9365 60.3541 22.9024 60.5585 22.861C61.3768 22.695 62.4147 22.4154 63.4383 21.8343C64.4515 21.259 65.4602 20.3831 66.2267 18.9976C66.9961 17.6069 67.5564 15.6391 67.5698 12.8294C67.5963 7.27458 65.4363 4.72672 63.4458 3.49729C62.4136 2.85973 61.3711 2.54354 60.5808 2.38828C60.1876 2.31103 59.863 2.27484 59.6421 2.25796C59.5319 2.24954 59.4481 2.24597 59.3953 2.24447C59.3689 2.24372 59.3503 2.24348 59.3401 2.24341L59.3314 2.24339Z" fill="#090966"/>
<path opacity="0.8" fill-rule="evenodd" clip-rule="evenodd" d="M155.331 2.24339L155.331 2.24339L155.328 2.24344H142.918V48.177H127.521L112.926 24.3241L127.515 5.61948e-05L138.974 5.61948e-05L124.63 24.3143L131.077 35.0978L133.4 38.8816L131.532 40.0709L129.202 36.2757L122.056 24.322L135.081 2.24344H128.751L115.515 24.3123L128.744 45.9336H140.715V1.12175C140.715 0.502255 141.209 5.61948e-05 141.817 5.61948e-05L155.32 5.61948e-05L155.323 1.59462e-05C155.332 -1.29365e-05 155.342 -8.25643e-06 155.355 7.779e-05C155.38 0.000249816 155.414 0.000747575 155.457 0.0019565C155.542 0.00437316 155.66 0.00963863 155.807 0.0208639C156.1 0.0432833 156.51 0.0896623 156.998 0.185501C157.97 0.376409 159.276 0.768448 160.588 1.57913C163.287 3.24618 165.803 6.55484 165.773 12.8402C165.758 15.9506 165.135 18.3108 164.146 20.0988C163.154 21.892 161.829 23.0457 160.511 23.7937C160.391 23.8616 160.272 23.9261 160.153 23.9874C161.197 24.2375 162.337 24.583 163.484 25.0676C165.538 25.9358 167.657 27.2694 169.273 29.3452C170.902 31.4369 171.965 34.2138 171.999 37.8579C172.033 41.5062 171.004 44.3324 169.395 46.4925C167.798 48.6366 165.678 50.063 163.61 51.0134C161.541 51.9639 159.483 52.4576 157.952 52.715C157.183 52.8442 156.541 52.9151 156.087 52.9538C155.86 52.9732 155.679 52.9846 155.553 52.9911C155.49 52.9944 155.441 52.9965 155.406 52.9978C155.394 52.9982 155.384 52.9986 155.375 52.9988L155.364 52.9992L155.352 52.9995L155.348 52.9996L155.347 52.9997C155.346 52.9997 155.345 52.9997 155.32 51.8783L155.345 52.9997L155.333 53H108.558V2.24344H98.2029V10.1513H101.638V53H97.679V50.7566H99.435V12.3947H96V5.61948e-05L110.761 5.61948e-05V50.7566H155.305C155.31 50.7565 155.317 50.7562 155.325 50.7559C155.35 50.755 155.389 50.7534 155.44 50.7507C155.544 50.7453 155.701 50.7355 155.903 50.7183C156.307 50.6838 156.891 50.6197 157.593 50.5016C159.002 50.2646 160.862 49.8146 162.704 48.9685C164.546 48.1222 166.328 46.8991 167.64 45.137C168.94 43.3909 169.826 41.0542 169.796 37.8792C169.767 34.7 168.851 32.4141 167.547 30.7389C166.231 29.0479 164.463 27.9106 162.639 27.1396C160.815 26.3686 158.977 25.9824 157.574 25.7695C156.938 25.6729 156.399 25.613 155.985 25.5669C155.944 25.5623 155.903 25.5578 155.864 25.5534C155.661 25.5307 155.464 25.5081 155.316 25.4836C155.25 25.4726 155.139 25.4527 155.028 25.4161C154.979 25.4004 154.856 25.3583 154.724 25.2695C154.635 25.2094 154.219 24.9114 154.219 24.3182C154.219 23.8369 154.493 23.5326 154.654 23.3996C154.807 23.2734 154.961 23.2093 155.038 23.18C155.201 23.1177 155.382 23.0794 155.51 23.0542C155.626 23.0311 155.763 23.0071 155.901 22.9829C155.931 22.9777 155.961 22.9725 155.991 22.9672C156.165 22.9365 156.354 22.9024 156.558 22.861C157.377 22.695 158.415 22.4154 159.438 21.8343C160.451 21.259 161.46 20.3831 162.227 18.9976C162.996 17.6069 163.556 15.6391 163.57 12.8294C163.596 7.27458 161.436 4.72672 159.446 3.49729C158.414 2.85973 157.371 2.54354 156.581 2.38828C156.188 2.31103 155.863 2.27484 155.642 2.25796C155.532 2.24954 155.448 2.24597 155.395 2.24447C155.369 2.24372 155.35 2.24348 155.34 2.24341L155.331 2.24339Z" fill="#090966"/>
<path opacity="0.6" fill-rule="evenodd" clip-rule="evenodd" d="M251.331 2.24339L251.331 2.24339L251.328 2.24344H238.918V48.177H223.521L208.926 24.3241L223.515 5.61948e-05L234.974 5.61948e-05L220.63 24.3143L227.077 35.0978L229.4 38.8816L227.532 40.0709L225.202 36.2757L218.056 24.322L231.081 2.24344H224.751L211.515 24.3123L224.744 45.9336H236.715V1.12175C236.715 0.502255 237.209 5.61948e-05 237.817 5.61948e-05L251.32 5.61948e-05L251.323 1.59462e-05C251.332 -1.29365e-05 251.342 -8.25643e-06 251.355 7.779e-05C251.38 0.000249816 251.414 0.000747575 251.457 0.0019565C251.542 0.00437316 251.66 0.00963863 251.807 0.0208639C252.1 0.0432833 252.51 0.0896623 252.998 0.185501C253.97 0.376409 255.276 0.768448 256.588 1.57913C259.287 3.24618 261.803 6.55484 261.773 12.8402C261.758 15.9506 261.135 18.3108 260.146 20.0988C259.154 21.892 257.829 23.0457 256.511 23.7937C256.391 23.8616 256.272 23.9261 256.153 23.9874C257.197 24.2375 258.337 24.583 259.484 25.0676C261.538 25.9358 263.657 27.2694 265.273 29.3452C266.902 31.4369 267.965 34.2138 267.999 37.8579C268.033 41.5062 267.004 44.3324 265.395 46.4925C263.798 48.6366 261.678 50.063 259.61 51.0134C257.541 51.9639 255.483 52.4576 253.952 52.715C253.183 52.8442 252.541 52.9151 252.087 52.9538C251.86 52.9732 251.679 52.9846 251.553 52.9911C251.49 52.9944 251.441 52.9965 251.406 52.9978C251.394 52.9982 251.384 52.9986 251.375 52.9988L251.364 52.9992L251.352 52.9995L251.348 52.9996L251.347 52.9997C251.346 52.9997 251.345 52.9997 251.32 51.8783L251.345 52.9997L251.333 53H204.558V2.24344H194.203V10.1513H197.638V53H193.679V50.7566H195.435V12.3947H192V5.61948e-05L206.761 5.61948e-05V50.7566H251.305C251.31 50.7565 251.317 50.7562 251.325 50.7559C251.35 50.755 251.389 50.7534 251.44 50.7507C251.544 50.7453 251.701 50.7355 251.903 50.7183C252.307 50.6838 252.891 50.6197 253.593 50.5016C255.002 50.2646 256.862 49.8146 258.704 48.9685C260.546 48.1222 262.328 46.8991 263.64 45.137C264.94 43.3909 265.826 41.0542 265.796 37.8792C265.767 34.7 264.851 32.4141 263.547 30.7389C262.231 29.0479 260.463 27.9106 258.639 27.1396C256.815 26.3686 254.977 25.9824 253.574 25.7695C252.938 25.6729 252.399 25.613 251.985 25.5669C251.944 25.5623 251.903 25.5578 251.864 25.5534C251.661 25.5307 251.464 25.5081 251.316 25.4836C251.25 25.4726 251.139 25.4527 251.028 25.4161C250.979 25.4004 250.856 25.3583 250.724 25.2695C250.635 25.2094 250.219 24.9114 250.219 24.3182C250.219 23.8369 250.493 23.5326 250.654 23.3996C250.807 23.2734 250.961 23.2093 251.038 23.18C251.201 23.1177 251.382 23.0794 251.51 23.0542C251.626 23.0311 251.763 23.0071 251.901 22.9829C251.931 22.9777 251.961 22.9725 251.991 22.9672C252.165 22.9365 252.354 22.9024 252.558 22.861C253.377 22.695 254.415 22.4154 255.438 21.8343C256.451 21.259 257.46 20.3831 258.227 18.9976C258.996 17.6069 259.556 15.6391 259.57 12.8294C259.596 7.27458 257.436 4.72672 255.446 3.49729C254.414 2.85973 253.371 2.54354 252.581 2.38828C252.188 2.31103 251.863 2.27484 251.642 2.25796C251.532 2.24954 251.448 2.24597 251.395 2.24447C251.369 2.24372 251.35 2.24348 251.34 2.24341L251.331 2.24339Z" fill="#090966"/>
<path opacity="0.4" fill-rule="evenodd" clip-rule="evenodd" d="M347.331 2.24339L347.331 2.24339L347.328 2.24344H334.918V48.177H319.521L304.926 24.3241L319.515 5.61948e-05L330.974 5.61948e-05L316.63 24.3143L323.077 35.0978L325.4 38.8816L323.532 40.0709L321.202 36.2757L314.056 24.322L327.081 2.24344H320.751L307.515 24.3123L320.744 45.9336H332.715V1.12175C332.715 0.502255 333.209 5.61948e-05 333.817 5.61948e-05L347.32 5.61948e-05L347.323 1.59462e-05C347.332 -1.29365e-05 347.342 -8.25643e-06 347.355 7.779e-05C347.38 0.000249816 347.414 0.000747575 347.457 0.0019565C347.542 0.00437316 347.66 0.00963863 347.807 0.0208639C348.1 0.0432833 348.51 0.0896623 348.998 0.185501C349.97 0.376409 351.276 0.768448 352.588 1.57913C355.287 3.24618 357.803 6.55484 357.773 12.8402C357.758 15.9506 357.135 18.3108 356.146 20.0988C355.154 21.892 353.829 23.0457 352.511 23.7937C352.391 23.8616 352.272 23.9261 352.153 23.9874C353.197 24.2375 354.337 24.583 355.484 25.0676C357.538 25.9358 359.657 27.2694 361.273 29.3452C362.902 31.4369 363.965 34.2138 363.999 37.8579C364.033 41.5062 363.004 44.3324 361.395 46.4925C359.798 48.6366 357.678 50.063 355.61 51.0134C353.541 51.9639 351.483 52.4576 349.952 52.715C349.183 52.8442 348.541 52.9151 348.087 52.9538C347.86 52.9732 347.679 52.9846 347.553 52.9911C347.49 52.9944 347.441 52.9965 347.406 52.9978C347.394 52.9982 347.384 52.9986 347.375 52.9988L347.364 52.9992L347.352 52.9995L347.348 52.9996L347.347 52.9997C347.346 52.9997 347.345 52.9997 347.32 51.8783L347.345 52.9997L347.333 53H300.558V2.24344H290.203V10.1513H293.638V53H289.679V50.7566H291.435V12.3947H288V5.61948e-05L302.761 5.61948e-05V50.7566H347.305C347.31 50.7565 347.317 50.7562 347.325 50.7559C347.35 50.755 347.389 50.7534 347.44 50.7507C347.544 50.7453 347.701 50.7355 347.903 50.7183C348.307 50.6838 348.891 50.6197 349.593 50.5016C351.002 50.2646 352.862 49.8146 354.704 48.9685C356.546 48.1222 358.328 46.8991 359.64 45.137C360.94 43.3909 361.826 41.0542 361.796 37.8792C361.767 34.7 360.851 32.4141 359.547 30.7389C358.231 29.0479 356.463 27.9106 354.639 27.1396C352.815 26.3686 350.977 25.9824 349.574 25.7695C348.938 25.6729 348.399 25.613 347.985 25.5669C347.944 25.5623 347.903 25.5578 347.864 25.5534C347.661 25.5307 347.464 25.5081 347.316 25.4836C347.25 25.4726 347.139 25.4527 347.028 25.4161C346.979 25.4004 346.856 25.3583 346.724 25.2695C346.635 25.2094 346.219 24.9114 346.219 24.3182C346.219 23.8369 346.493 23.5326 346.654 23.3996C346.807 23.2734 346.961 23.2093 347.038 23.18C347.201 23.1177 347.382 23.0794 347.51 23.0542C347.626 23.0311 347.763 23.0071 347.901 22.9829C347.931 22.9777 347.961 22.9725 347.991 22.9672C348.165 22.9365 348.354 22.9024 348.558 22.861C349.377 22.695 350.415 22.4154 351.438 21.8343C352.451 21.259 353.46 20.3831 354.227 18.9976C354.996 17.6069 355.556 15.6391 355.57 12.8294C355.596 7.27458 353.436 4.72672 351.446 3.49729C350.414 2.85973 349.371 2.54354 348.581 2.38828C348.188 2.31103 347.863 2.27484 347.642 2.25796C347.532 2.24954 347.448 2.24597 347.395 2.24447C347.369 2.24372 347.35 2.24348 347.34 2.24341L347.331 2.24339Z" fill="#090966"/>
<path opacity="0.2" fill-rule="evenodd" clip-rule="evenodd" d="M443.331 2.24339L443.331 2.24339L443.328 2.24344H430.918V48.177H415.521L400.926 24.3241L415.515 5.61948e-05L426.974 5.61948e-05L412.63 24.3143L419.077 35.0978L421.4 38.8816L419.532 40.0709L417.202 36.2757L410.056 24.322L423.081 2.24344H416.751L403.515 24.3123L416.744 45.9336H428.715V1.12175C428.715 0.502255 429.209 5.61948e-05 429.817 5.61948e-05L443.32 5.61948e-05L443.323 1.59462e-05C443.332 -1.29365e-05 443.342 -8.25643e-06 443.355 7.779e-05C443.38 0.000249816 443.414 0.000747575 443.457 0.0019565C443.542 0.00437316 443.66 0.00963863 443.807 0.0208639C444.1 0.0432833 444.51 0.0896623 444.998 0.185501C445.97 0.376409 447.276 0.768448 448.588 1.57913C451.287 3.24618 453.803 6.55484 453.773 12.8402C453.758 15.9506 453.135 18.3108 452.146 20.0988C451.154 21.892 449.829 23.0457 448.511 23.7937C448.391 23.8616 448.272 23.9261 448.153 23.9874C449.197 24.2375 450.337 24.583 451.484 25.0676C453.538 25.9358 455.657 27.2694 457.273 29.3452C458.902 31.4369 459.965 34.2138 459.999 37.8579C460.033 41.5062 459.004 44.3324 457.395 46.4925C455.798 48.6366 453.678 50.063 451.61 51.0134C449.541 51.9639 447.483 52.4576 445.952 52.715C445.183 52.8442 444.541 52.9151 444.087 52.9538C443.86 52.9732 443.679 52.9846 443.553 52.9911C443.49 52.9944 443.441 52.9965 443.406 52.9978C443.394 52.9982 443.384 52.9986 443.375 52.9988L443.364 52.9992L443.352 52.9995L443.348 52.9996L443.347 52.9997C443.346 52.9997 443.345 52.9997 443.32 51.8783L443.345 52.9997L443.333 53H396.558V2.24344H386.203V10.1513H389.638V53H385.679V50.7566H387.435V12.3947H384V5.61948e-05L398.761 5.61948e-05V50.7566H443.305C443.31 50.7565 443.317 50.7562 443.325 50.7559C443.35 50.755 443.389 50.7534 443.44 50.7507C443.544 50.7453 443.701 50.7355 443.903 50.7183C444.307 50.6838 444.891 50.6197 445.593 50.5016C447.002 50.2646 448.862 49.8146 450.704 48.9685C452.546 48.1222 454.328 46.8991 455.64 45.137C456.94 43.3909 457.826 41.0542 457.796 37.8792C457.767 34.7 456.851 32.4141 455.547 30.7389C454.231 29.0479 452.463 27.9106 450.639 27.1396C448.815 26.3686 446.977 25.9824 445.574 25.7695C444.938 25.6729 444.399 25.613 443.985 25.5669C443.944 25.5623 443.903 25.5578 443.864 25.5534C443.661 25.5307 443.464 25.5081 443.316 25.4836C443.25 25.4726 443.139 25.4527 443.028 25.4161C442.979 25.4004 442.856 25.3583 442.724 25.2695C442.635 25.2094 442.219 24.9114 442.219 24.3182C442.219 23.8369 442.493 23.5326 442.654 23.3996C442.807 23.2734 442.961 23.2093 443.038 23.18C443.201 23.1177 443.382 23.0794 443.51 23.0542C443.626 23.0311 443.763 23.0071 443.901 22.9829C443.931 22.9777 443.961 22.9725 443.991 22.9672C444.165 22.9365 444.354 22.9024 444.558 22.861C445.377 22.695 446.415 22.4154 447.438 21.8343C448.451 21.259 449.46 20.3831 450.227 18.9976C450.996 17.6069 451.556 15.6391 451.57 12.8294C451.596 7.27458 449.436 4.72672 447.446 3.49729C446.414 2.85973 445.371 2.54354 444.581 2.38828C444.188 2.31103 443.863 2.27484 443.642 2.25796C443.532 2.24954 443.448 2.24597 443.395 2.24447C443.369 2.24372 443.35 2.24348 443.34 2.24341L443.331 2.24339Z" fill="#090966"/>
<path opacity="0.4" fill-rule="evenodd" clip-rule="evenodd" d="M539.331 2.24339L539.331 2.24339L539.328 2.24344H526.918V48.177H511.521L496.926 24.3241L511.515 5.61948e-05L522.974 5.61948e-05L508.63 24.3143L515.077 35.0978L517.4 38.8816L515.532 40.0709L513.202 36.2757L506.056 24.322L519.081 2.24344H512.751L499.515 24.3123L512.744 45.9336H524.715V1.12175C524.715 0.502255 525.209 5.61948e-05 525.817 5.61948e-05L539.32 5.61948e-05L539.323 1.59462e-05C539.332 -1.29365e-05 539.342 -8.25643e-06 539.355 7.779e-05C539.38 0.000249816 539.414 0.000747575 539.457 0.0019565C539.542 0.00437316 539.66 0.00963863 539.807 0.0208639C540.1 0.0432833 540.51 0.0896623 540.998 0.185501C541.97 0.376409 543.276 0.768448 544.588 1.57913C547.287 3.24618 549.803 6.55484 549.773 12.8402C549.758 15.9506 549.135 18.3108 548.146 20.0988C547.154 21.892 545.829 23.0457 544.511 23.7937C544.391 23.8616 544.272 23.9261 544.153 23.9874C545.197 24.2375 546.337 24.583 547.484 25.0676C549.538 25.9358 551.657 27.2694 553.273 29.3452C554.902 31.4369 555.965 34.2138 555.999 37.8579C556.033 41.5062 555.004 44.3324 553.395 46.4925C551.798 48.6366 549.678 50.063 547.61 51.0134C545.541 51.9639 543.483 52.4576 541.952 52.715C541.183 52.8442 540.541 52.9151 540.087 52.9538C539.86 52.9732 539.679 52.9846 539.553 52.9911C539.49 52.9944 539.441 52.9965 539.406 52.9978C539.394 52.9982 539.384 52.9986 539.375 52.9988L539.364 52.9992L539.352 52.9995L539.348 52.9996L539.347 52.9997C539.346 52.9997 539.345 52.9997 539.32 51.8783L539.345 52.9997L539.333 53H492.558V2.24344H482.203V10.1513H485.638V53H481.679V50.7566H483.435V12.3947H480V5.61948e-05L494.761 5.61948e-05V50.7566H539.305C539.31 50.7565 539.317 50.7562 539.325 50.7559C539.35 50.755 539.389 50.7534 539.44 50.7507C539.544 50.7453 539.701 50.7355 539.903 50.7183C540.307 50.6838 540.891 50.6197 541.593 50.5016C543.002 50.2646 544.862 49.8146 546.704 48.9685C548.546 48.1222 550.328 46.8991 551.64 45.137C552.94 43.3909 553.826 41.0542 553.796 37.8792C553.767 34.7 552.851 32.4141 551.547 30.7389C550.231 29.0479 548.463 27.9106 546.639 27.1396C544.815 26.3686 542.977 25.9824 541.574 25.7695C540.938 25.6729 540.399 25.613 539.985 25.5669C539.944 25.5623 539.903 25.5578 539.864 25.5534C539.661 25.5307 539.464 25.5081 539.316 25.4836C539.25 25.4726 539.139 25.4527 539.028 25.4161C538.979 25.4004 538.856 25.3583 538.724 25.2695C538.635 25.2094 538.219 24.9114 538.219 24.3182C538.219 23.8369 538.493 23.5326 538.654 23.3996C538.807 23.2734 538.961 23.2093 539.038 23.18C539.201 23.1177 539.382 23.0794 539.51 23.0542C539.626 23.0311 539.763 23.0071 539.901 22.9829C539.931 22.9777 539.961 22.9725 539.991 22.9672C540.165 22.9365 540.354 22.9024 540.558 22.861C541.377 22.695 542.415 22.4154 543.438 21.8343C544.451 21.259 545.46 20.3831 546.227 18.9976C546.996 17.6069 547.556 15.6391 547.57 12.8294C547.596 7.27458 545.436 4.72672 543.446 3.49729C542.414 2.85973 541.371 2.54354 540.581 2.38828C540.188 2.31103 539.863 2.27484 539.642 2.25796C539.532 2.24954 539.448 2.24597 539.395 2.24447C539.369 2.24372 539.35 2.24348 539.34 2.24341L539.331 2.24339Z" fill="#090966"/>
<path opacity="0.6" fill-rule="evenodd" clip-rule="evenodd" d="M635.331 2.24339L635.331 2.24339L635.328 2.24344H622.918V48.177H607.521L592.926 24.3241L607.515 5.61948e-05L618.974 5.61948e-05L604.63 24.3143L611.077 35.0978L613.4 38.8816L611.532 40.0709L609.202 36.2757L602.056 24.322L615.081 2.24344H608.751L595.515 24.3123L608.744 45.9336H620.715V1.12175C620.715 0.502255 621.209 5.61948e-05 621.817 5.61948e-05L635.32 5.61948e-05L635.323 1.59462e-05C635.332 -1.29365e-05 635.342 -8.25643e-06 635.355 7.779e-05C635.38 0.000249816 635.414 0.000747575 635.457 0.0019565C635.542 0.00437316 635.66 0.00963863 635.807 0.0208639C636.1 0.0432833 636.51 0.0896623 636.998 0.185501C637.97 0.376409 639.276 0.768448 640.588 1.57913C643.287 3.24618 645.803 6.55484 645.773 12.8402C645.758 15.9506 645.135 18.3108 644.146 20.0988C643.154 21.892 641.829 23.0457 640.511 23.7937C640.391 23.8616 640.272 23.9261 640.153 23.9874C641.197 24.2375 642.337 24.583 643.484 25.0676C645.538 25.9358 647.657 27.2694 649.273 29.3452C650.902 31.4369 651.965 34.2138 651.999 37.8579C652.033 41.5062 651.004 44.3324 649.395 46.4925C647.798 48.6366 645.678 50.063 643.61 51.0134C641.541 51.9639 639.483 52.4576 637.952 52.715C637.183 52.8442 636.541 52.9151 636.087 52.9538C635.86 52.9732 635.679 52.9846 635.553 52.9911C635.49 52.9944 635.441 52.9965 635.406 52.9978C635.394 52.9982 635.384 52.9986 635.375 52.9988L635.364 52.9992L635.352 52.9995L635.348 52.9996L635.347 52.9997C635.346 52.9997 635.345 52.9997 635.32 51.8783L635.345 52.9997L635.333 53H588.558V2.24344H578.203V10.1513H581.638V53H577.679V50.7566H579.435V12.3947H576V5.61948e-05L590.761 5.61948e-05V50.7566H635.305C635.31 50.7565 635.317 50.7562 635.325 50.7559C635.35 50.755 635.389 50.7534 635.44 50.7507C635.544 50.7453 635.701 50.7355 635.903 50.7183C636.307 50.6838 636.891 50.6197 637.593 50.5016C639.002 50.2646 640.862 49.8146 642.704 48.9685C644.546 48.1222 646.328 46.8991 647.64 45.137C648.94 43.3909 649.826 41.0542 649.796 37.8792C649.767 34.7 648.851 32.4141 647.547 30.7389C646.231 29.0479 644.463 27.9106 642.639 27.1396C640.815 26.3686 638.977 25.9824 637.574 25.7695C636.938 25.6729 636.399 25.613 635.985 25.5669C635.944 25.5623 635.903 25.5578 635.864 25.5534C635.661 25.5307 635.464 25.5081 635.316 25.4836C635.25 25.4726 635.139 25.4527 635.028 25.4161C634.979 25.4004 634.856 25.3583 634.724 25.2695C634.635 25.2094 634.219 24.9114 634.219 24.3182C634.219 23.8369 634.493 23.5326 634.654 23.3996C634.807 23.2734 634.961 23.2093 635.038 23.18C635.201 23.1177 635.382 23.0794 635.51 23.0542C635.626 23.0311 635.763 23.0071 635.901 22.9829C635.931 22.9777 635.961 22.9725 635.991 22.9672C636.165 22.9365 636.354 22.9024 636.558 22.861C637.377 22.695 638.415 22.4154 639.438 21.8343C640.451 21.259 641.46 20.3831 642.227 18.9976C642.996 17.6069 643.556 15.6391 643.57 12.8294C643.596 7.27458 641.436 4.72672 639.446 3.49729C638.414 2.85973 637.371 2.54354 636.581 2.38828C636.188 2.31103 635.863 2.27484 635.642 2.25796C635.532 2.24954 635.448 2.24597 635.395 2.24447C635.369 2.24372 635.35 2.24348 635.34 2.24341L635.331 2.24339Z" fill="#090966"/>
<path opacity="0.8" fill-rule="evenodd" clip-rule="evenodd" d="M731.331 2.24339L731.331 2.24339L731.328 2.24344H718.918V48.177H703.521L688.926 24.3241L703.515 5.61948e-05L714.974 5.61948e-05L700.63 24.3143L707.077 35.0978L709.4 38.8816L707.532 40.0709L705.202 36.2757L698.056 24.322L711.081 2.24344H704.751L691.515 24.3123L704.744 45.9336H716.715V1.12175C716.715 0.502255 717.209 5.61948e-05 717.817 5.61948e-05L731.32 5.61948e-05L731.323 1.59462e-05C731.332 -1.29365e-05 731.342 -8.25643e-06 731.355 7.779e-05C731.38 0.000249816 731.414 0.000747575 731.457 0.0019565C731.542 0.00437316 731.66 0.00963863 731.807 0.0208639C732.1 0.0432833 732.51 0.0896623 732.998 0.185501C733.97 0.376409 735.276 0.768448 736.588 1.57913C739.287 3.24618 741.803 6.55484 741.773 12.8402C741.758 15.9506 741.135 18.3108 740.146 20.0988C739.154 21.892 737.829 23.0457 736.511 23.7937C736.391 23.8616 736.272 23.9261 736.153 23.9874C737.197 24.2375 738.337 24.583 739.484 25.0676C741.538 25.9358 743.657 27.2694 745.273 29.3452C746.902 31.4369 747.965 34.2138 747.999 37.8579C748.033 41.5062 747.004 44.3324 745.395 46.4925C743.798 48.6366 741.678 50.063 739.61 51.0134C737.541 51.9639 735.483 52.4576 733.952 52.715C733.183 52.8442 732.541 52.9151 732.087 52.9538C731.86 52.9732 731.679 52.9846 731.553 52.9911C731.49 52.9944 731.441 52.9965 731.406 52.9978C731.394 52.9982 731.384 52.9986 731.375 52.9988L731.364 52.9992L731.352 52.9995L731.348 52.9996L731.347 52.9997C731.346 52.9997 731.345 52.9997 731.32 51.8783L731.345 52.9997L731.333 53H684.558V2.24344H674.203V10.1513H677.638V53H673.679V50.7566H675.435V12.3947H672V5.61948e-05L686.761 5.61948e-05V50.7566H731.305C731.31 50.7565 731.317 50.7562 731.325 50.7559C731.35 50.755 731.389 50.7534 731.44 50.7507C731.544 50.7453 731.701 50.7355 731.903 50.7183C732.307 50.6838 732.891 50.6197 733.593 50.5016C735.002 50.2646 736.862 49.8146 738.704 48.9685C740.546 48.1222 742.328 46.8991 743.64 45.137C744.94 43.3909 745.826 41.0542 745.796 37.8792C745.767 34.7 744.851 32.4141 743.547 30.7389C742.231 29.0479 740.463 27.9106 738.639 27.1396C736.815 26.3686 734.977 25.9824 733.574 25.7695C732.938 25.6729 732.399 25.613 731.985 25.5669C731.944 25.5623 731.903 25.5578 731.864 25.5534C731.661 25.5307 731.464 25.5081 731.316 25.4836C731.25 25.4726 731.139 25.4527 731.028 25.4161C730.979 25.4004 730.856 25.3583 730.724 25.2695C730.635 25.2094 730.219 24.9114 730.219 24.3182C730.219 23.8369 730.493 23.5326 730.654 23.3996C730.807 23.2734 730.961 23.2093 731.038 23.18C731.201 23.1177 731.382 23.0794 731.51 23.0542C731.626 23.0311 731.763 23.0071 731.901 22.9829C731.931 22.9777 731.961 22.9725 731.991 22.9672C732.165 22.9365 732.354 22.9024 732.558 22.861C733.377 22.695 734.415 22.4154 735.438 21.8343C736.451 21.259 737.46 20.3831 738.227 18.9976C738.996 17.6069 739.556 15.6391 739.57 12.8294C739.596 7.27458 737.436 4.72672 735.446 3.49729C734.414 2.85973 733.371 2.54354 732.581 2.38828C732.188 2.31103 731.863 2.27484 731.642 2.25796C731.532 2.24954 731.448 2.24597 731.395 2.24447C731.369 2.24372 731.35 2.24348 731.34 2.24341L731.331 2.24339Z" fill="#090966"/>
</g>
<defs>
<clipPath id="clip0_73_2">
<rect width="768" height="53" fill="white"/>
</clipPath>
</defs>
</svg>
