<svg width="76" height="77" viewBox="0 0 76 77" fill="none" xmlns="http://www.w3.org/2000/svg">
<g clip-path="url(#clip0_108_13)">
<path opacity="0.1" fill-rule="evenodd" clip-rule="evenodd" d="M59.3314 2.24339L59.3311 2.24339L59.3277 2.24344H46.9183V48.177H31.5213L16.9263 24.3241L31.5148 5.61948e-05L42.974 5.61948e-05L28.6305 24.3143L35.0771 35.0978L37.4 38.8816L35.5321 40.0709L33.2022 36.2757L26.056 24.322L39.0807 2.24344H32.7506L19.5147 24.3123L32.7442 45.9336H44.7154V1.12175C44.7154 0.502255 45.2085 5.61948e-05 45.8168 5.61948e-05L59.3204 5.61948e-05L59.3234 1.59462e-05C59.3316 -1.29365e-05 59.3421 -8.25643e-06 59.3548 7.779e-05C59.3801 0.000249816 59.4143 0.000747575 59.4568 0.0019565C59.5418 0.00437316 59.6601 0.00963863 59.807 0.0208639C60.1003 0.0432833 60.5102 0.0896623 60.9981 0.185501C61.9698 0.376409 63.2757 0.768448 64.5882 1.57913C67.2872 3.24618 69.8027 6.55484 69.7727 12.8402C69.7579 15.9506 69.1352 18.3108 68.146 20.0988C67.1539 21.892 65.8285 23.0457 64.511 23.7937C64.3915 23.8616 64.2721 23.9261 64.1531 23.9874C65.1971 24.2375 66.3371 24.583 67.4837 25.0676C69.538 25.9358 71.6572 27.2694 73.2733 29.3452C74.9018 31.4369 75.9653 34.2138 75.9992 37.8579C76.0331 41.5062 75.0036 44.3324 73.395 46.4925C71.7984 48.6366 69.6781 50.063 67.6097 51.0134C65.541 51.9639 63.4827 52.4576 61.9517 52.715C61.1835 52.8442 60.5409 52.9151 60.0868 52.9538C59.8596 52.9732 59.6791 52.9846 59.553 52.9911C59.49 52.9944 59.4405 52.9965 59.4056 52.9978C59.3939 52.9982 59.3838 52.9986 59.3754 52.9988L59.3643 52.9992L59.352 52.9995L59.348 52.9996L59.3465 52.9997C59.3459 52.9997 59.3454 52.9997 59.3204 51.8783L59.3454 52.9997L59.3329 53H12.5577V2.24344H2.2029V10.1513H5.63786V53H1.67902V50.7566H3.43496V12.3947H0L0 5.61948e-05L14.7606 5.61948e-05V50.7566H59.3049C59.3099 50.7565 59.3168 50.7562 59.3253 50.7559C59.3498 50.755 59.3885 50.7534 59.4405 50.7507C59.5444 50.7453 59.7012 50.7355 59.9031 50.7183C60.3073 50.6838 60.8907 50.6197 61.5928 50.5016C63.0024 50.2646 64.8623 49.8146 66.7038 48.9685C68.5455 48.1222 70.3275 46.8991 71.6398 45.137C72.94 43.3909 73.8259 41.0542 73.7964 37.8792C73.7668 34.7 72.8514 32.4141 71.5472 30.7389C70.2306 29.0479 68.4634 27.9106 66.6393 27.1396C64.815 26.3686 62.9771 25.9824 61.5742 25.7695C60.9378 25.6729 60.3991 25.613 59.9853 25.5669C59.9437 25.5623 59.9033 25.5578 59.8643 25.5534C59.6611 25.5307 59.4639 25.5081 59.3163 25.4836C59.2504 25.4726 59.1392 25.4527 59.0275 25.4161C58.9794 25.4004 58.8565 25.3583 58.7244 25.2695C58.6352 25.2094 58.219 24.9114 58.219 24.3182C58.219 23.8369 58.4927 23.5326 58.6539 23.3996C58.8069 23.2734 58.9614 23.2093 59.0382 23.18C59.2013 23.1177 59.3825 23.0794 59.5099 23.0542C59.6264 23.0311 59.7632 23.0071 59.9014 22.9829C59.9312 22.9777 59.961 22.9725 59.9907 22.9672C60.1651 22.9365 60.3541 22.9024 60.5585 22.861C61.3768 22.695 62.4147 22.4154 63.4383 21.8343C64.4515 21.259 65.4602 20.3831 66.2267 18.9976C66.9961 17.6069 67.5564 15.6391 67.5698 12.8294C67.5963 7.27458 65.4363 4.72672 63.4458 3.49729C62.4136 2.85973 61.3711 2.54354 60.5808 2.38828C60.1876 2.31103 59.863 2.27484 59.6421 2.25796C59.5319 2.24954 59.4481 2.24597 59.3953 2.24447C59.3689 2.24372 59.3503 2.24348 59.3401 2.24341L59.3314 2.24339Z" fill="#090966"/>
</g>
<defs>
<clipPath id="clip0_108_13">
<rect width="76" height="77" fill="white"/>
</clipPath>
</defs>
</svg>
